<svg width="240" height="25" viewBox="0 0 240 25" fill="none" xmlns="http://www.w3.org/2000/svg">
<g filter="url(#filter0_d_2_22)">
<path d="M1.37695 22C1.49414 21.8828 1.5918 21.5117 1.66992 20.8867C1.74805 20.2422 1.80664 19.4707 1.8457 18.5723C1.9043 17.6738 1.93359 16.6973 1.93359 15.6426C1.95313 14.5879 1.96289 13.582 1.96289 12.625C1.96289 11.668 1.95313 10.8281 1.93359 10.1055C1.93359 9.36328 1.93359 8.8457 1.93359 8.55273C1.93359 8.37695 1.93359 8.07422 1.93359 7.64453C1.93359 7.21484 1.92383 6.73633 1.9043 6.20898C1.9043 5.68164 1.89453 5.125 1.875 4.53906C1.85547 3.93359 1.81641 3.37695 1.75781 2.86914C1.71875 2.36133 1.66016 1.92187 1.58203 1.55078C1.50391 1.16016 1.40625 0.896484 1.28906 0.759766C1.23047 0.701172 1.16211 0.642578 1.08398 0.583984C1.02539 0.525391 0.966797 0.466797 0.908203 0.408203L22.1777 0.466797L21.8555 3.71875C21.7578 3.67969 21.5137 3.65039 21.123 3.63086C20.752 3.61133 20.293 3.5918 19.7461 3.57227C19.1992 3.55273 18.6133 3.54297 17.9883 3.54297C17.3633 3.52344 16.7676 3.51367 16.2012 3.51367C15.6543 3.51367 15.166 3.51367 14.7363 3.51367C14.3066 3.51367 14.0137 3.51367 13.8574 3.51367C11.3574 3.51367 8.84766 3.54297 6.32812 3.60156C6.23047 4.57813 6.17188 5.55469 6.15234 6.53125C6.13281 7.48828 6.12305 8.46484 6.12305 9.46094L19.5996 9.31445L19.5703 12.4492C19.4922 12.4297 19.2969 12.4102 18.9844 12.3906C18.6914 12.3516 18.3398 12.332 17.9297 12.332C17.5195 12.3125 17.0703 12.3027 16.582 12.3027C16.1133 12.2832 15.6641 12.2734 15.2344 12.2734C14.8242 12.2734 14.4531 12.2734 14.1211 12.2734C13.7891 12.2734 13.5645 12.2734 13.4473 12.2734C11.0059 12.2734 8.55469 12.3027 6.09375 12.3613C6.09375 13.2402 6.08398 14.1191 6.06445 14.998C6.06445 15.8574 6.06445 16.7266 6.06445 17.6055V18.7773C7.45117 18.8359 8.82812 18.8652 10.1953 18.8652C11.582 18.8652 12.9688 18.8652 14.3555 18.8652C14.4922 18.8652 14.7754 18.8652 15.2051 18.8652C15.6348 18.8652 16.1328 18.8652 16.6992 18.8652C17.2656 18.8652 17.8516 18.8652 18.457 18.8652C19.082 18.8457 19.668 18.8359 20.2148 18.8359C20.7617 18.8164 21.2207 18.7969 21.5918 18.7773C21.9824 18.7578 22.2266 18.7285 22.3242 18.6895L22.6465 21.9414L1.37695 22ZM35.332 7.26367C36.3867 7.26367 37.4219 7.41016 38.4375 7.70312C39.4727 7.97656 40.4004 8.39648 41.2207 8.96289C42.041 9.5293 42.7051 10.252 43.2129 11.1309C43.7207 12.0098 43.9746 13.0352 43.9746 14.207C43.9746 15.0078 43.8086 15.7598 43.4766 16.4629C43.1445 17.1465 42.7051 17.7715 42.1582 18.3379C41.6113 18.9043 40.9961 19.4023 40.3125 19.832C39.6484 20.2617 38.9844 20.6035 38.3203 20.8574C36.9336 21.3848 35.5078 21.6484 34.043 21.6484C33.2227 21.6484 32.4121 21.5605 31.6113 21.3848C30.8301 21.209 30.0781 20.916 29.3555 20.5059C29.375 20.7207 29.3945 20.9746 29.4141 21.2676C29.4336 21.541 29.4922 21.7852 29.5898 22H24.4336C24.5312 21.8438 24.6191 21.3848 24.6973 20.623C24.7949 19.8613 24.8828 18.9434 24.9609 17.8691C25.0391 16.7949 25.1074 15.6328 25.166 14.3828C25.2246 13.1328 25.2734 11.9316 25.3125 10.7793C25.3711 9.62695 25.4102 8.5918 25.4297 7.67383C25.4492 6.75586 25.459 6.0918 25.459 5.68164C25.459 5.4668 25.459 5.0957 25.459 4.56836C25.459 4.02148 25.4395 3.45508 25.4004 2.86914C25.3613 2.2832 25.3027 1.74609 25.2246 1.25781C25.1465 0.769531 25.0391 0.476563 24.9023 0.378906L30.4688 0.408203C30.332 0.466797 30.2148 0.691406 30.1172 1.08203C30.0195 1.47266 29.9316 1.96094 29.8535 2.54688C29.7754 3.11328 29.707 3.73828 29.6484 4.42188C29.6094 5.10547 29.5703 5.75977 29.5312 6.38477C29.4922 6.99023 29.4629 7.53711 29.4434 8.02539C29.4238 8.51367 29.4141 8.85547 29.4141 9.05078C30.2734 8.46484 31.2109 8.02539 32.2266 7.73242C33.2422 7.41992 34.2773 7.26367 35.332 7.26367ZM34.0137 18.7188C34.6973 18.7188 35.3711 18.6211 36.0352 18.4258C36.7188 18.2305 37.334 17.9375 37.8809 17.5469C38.4277 17.1562 38.8672 16.6777 39.1992 16.1113C39.5312 15.5254 39.6973 14.8516 39.6973 14.0898C39.6973 13.3867 39.541 12.7812 39.2285 12.2734C38.9355 11.7461 38.5449 11.3164 38.0566 10.9844C37.5684 10.6328 37.0117 10.3789 36.3867 10.2227C35.7812 10.0664 35.166 9.98828 34.541 9.98828C33.9746 9.98828 33.3887 10.0762 32.7832 10.252C32.1777 10.4277 31.6113 10.6816 31.084 11.0137C30.5762 11.3457 30.1562 11.7559 29.8242 12.2441C29.4922 12.7324 29.3164 13.2988 29.2969 13.9434V15.0859C29.2969 15.7109 29.4336 16.2578 29.707 16.7266C30 17.1758 30.3711 17.5469 30.8203 17.8398C31.2891 18.1328 31.7969 18.3574 32.3438 18.5137C32.9102 18.6504 33.4668 18.7188 34.0137 18.7188ZM55.3711 7.87891C56.4453 7.87891 57.5781 8.03516 58.7695 8.34766C59.9609 8.64062 61.0449 9.09961 62.0215 9.72461C62.998 10.3301 63.8086 11.1016 64.4531 12.0391C65.0977 12.9766 65.4199 14.0801 65.4199 15.3496C65.4199 16.1895 65.2637 16.9512 64.9512 17.6348C64.6387 18.2988 64.2188 18.8945 63.6914 19.4219C63.1836 19.9297 62.5879 20.3789 61.9043 20.7695C61.2207 21.1406 60.498 21.4531 59.7363 21.707C58.9941 21.9414 58.2324 22.1172 57.4512 22.2344C56.6699 22.3516 55.9375 22.4102 55.2539 22.4102C54.1406 22.4102 52.998 22.2832 51.8262 22.0293C50.6543 21.7754 49.5801 21.3652 48.6035 20.7988C47.6465 20.2324 46.8555 19.5 46.2305 18.6016C45.625 17.6836 45.3223 16.5605 45.3223 15.2324C45.3223 13.9238 45.6348 12.8105 46.2598 11.8926C46.9043 10.9551 47.7148 10.1934 48.6914 9.60742C49.668 9.00195 50.7422 8.5625 51.9141 8.28906C53.1055 8.01562 54.2578 7.87891 55.3711 7.87891ZM49.7168 15.2031C49.7168 15.9648 49.8828 16.6094 50.2148 17.1367C50.5664 17.6641 51.0059 18.0938 51.5332 18.4258C52.0801 18.7578 52.6855 19.002 53.3496 19.1582C54.0137 19.2949 54.668 19.3633 55.3125 19.3633C55.918 19.3633 56.5527 19.2852 57.2168 19.1289C57.8809 18.9727 58.4961 18.7285 59.0625 18.3965C59.6289 18.0645 60.0977 17.6445 60.4688 17.1367C60.8398 16.6094 61.0254 15.9844 61.0254 15.2617C61.0254 14.5391 60.8496 13.9141 60.498 13.3867C60.1465 12.8398 59.6973 12.3906 59.1504 12.0391C58.6035 11.668 57.9883 11.3945 57.3047 11.2188C56.6406 11.043 55.9961 10.9551 55.3711 10.9551C54.7266 10.9551 54.0723 11.043 53.4082 11.2188C52.7441 11.375 52.1387 11.6289 51.5918 11.9805C51.0449 12.3125 50.5957 12.752 50.2441 13.2988C49.8926 13.8262 49.7168 14.4609 49.7168 15.2031ZM77.2852 7.87891C78.3594 7.87891 79.4922 8.03516 80.6836 8.34766C81.875 8.64062 82.959 9.09961 83.9355 9.72461C84.9121 10.3301 85.7227 11.1016 86.3672 12.0391C87.0117 12.9766 87.334 14.0801 87.334 15.3496C87.334 16.1895 87.1777 16.9512 86.8652 17.6348C86.5527 18.2988 86.1328 18.8945 85.6055 19.4219C85.0977 19.9297 84.502 20.3789 83.8184 20.7695C83.1348 21.1406 82.4121 21.4531 81.6504 21.707C80.9082 21.9414 80.1465 22.1172 79.3652 22.2344C78.584 22.3516 77.8516 22.4102 77.168 22.4102C76.0547 22.4102 74.9121 22.2832 73.7402 22.0293C72.5684 21.7754 71.4941 21.3652 70.5176 20.7988C69.5605 20.2324 68.7695 19.5 68.1445 18.6016C67.5391 17.6836 67.2363 16.5605 67.2363 15.2324C67.2363 13.9238 67.5488 12.8105 68.1738 11.8926C68.8184 10.9551 69.6289 10.1934 70.6055 9.60742C71.582 9.00195 72.6562 8.5625 73.8281 8.28906C75.0195 8.01562 76.1719 7.87891 77.2852 7.87891ZM71.6309 15.2031C71.6309 15.9648 71.7969 16.6094 72.1289 17.1367C72.4805 17.6641 72.9199 18.0938 73.4473 18.4258C73.9941 18.7578 74.5996 19.002 75.2637 19.1582C75.9277 19.2949 76.582 19.3633 77.2266 19.3633C77.832 19.3633 78.4668 19.2852 79.1309 19.1289C79.7949 18.9727 80.4102 18.7285 80.9766 18.3965C81.543 18.0645 82.0117 17.6445 82.3828 17.1367C82.7539 16.6094 82.9395 15.9844 82.9395 15.2617C82.9395 14.5391 82.7637 13.9141 82.4121 13.3867C82.0605 12.8398 81.6113 12.3906 81.0645 12.0391C80.5176 11.668 79.9023 11.3945 79.2188 11.2188C78.5547 11.043 77.9102 10.9551 77.2852 10.9551C76.6406 10.9551 75.9863 11.043 75.3223 11.2188C74.6582 11.375 74.0527 11.6289 73.5059 11.9805C72.959 12.3125 72.5098 12.752 72.1582 13.2988C71.8066 13.8262 71.6309 14.4609 71.6309 15.2031ZM98.2617 14.5586C99.3164 15.4766 100.371 16.3848 101.426 17.2832C102.5 18.1621 103.574 19.0508 104.648 19.9492C105.117 20.3398 105.596 20.75 106.084 21.1797C106.572 21.6094 107.09 21.9609 107.637 22.2344H102.334C102.275 22.1367 102.09 21.9512 101.777 21.6777C101.465 21.3848 101.084 21.0625 100.635 20.7109C100.205 20.3594 99.7363 19.9785 99.2285 19.5684C98.7207 19.1582 98.2324 18.7676 97.7637 18.3965C97.2949 18.0254 96.8652 17.7031 96.4746 17.4297C96.1035 17.1367 95.8301 16.9219 95.6543 16.7852L94.5996 17.6934C94.5996 17.9082 94.5996 18.2402 94.5996 18.6895C94.5996 19.1191 94.6094 19.5684 94.6289 20.0371C94.6484 20.5059 94.6777 20.9453 94.7168 21.3555C94.7754 21.7656 94.8438 22.0391 94.9219 22.1758H89.7363C89.8145 22.0391 89.8926 21.7266 89.9707 21.2383C90.0488 20.75 90.1172 20.1445 90.1758 19.4219C90.2344 18.6992 90.2832 17.8984 90.3223 17.0195C90.3809 16.1211 90.4297 15.2031 90.4688 14.2656C90.5273 13.3281 90.5664 12.4004 90.5859 11.4824C90.625 10.5449 90.6543 9.68555 90.6738 8.9043C90.7129 8.10352 90.7324 7.40039 90.7324 6.79492C90.752 6.18945 90.7617 5.74023 90.7617 5.44727C90.7617 5.25195 90.7617 4.91016 90.7617 4.42188C90.7617 3.91406 90.7422 3.39648 90.7031 2.86914C90.6641 2.32227 90.6055 1.82422 90.5273 1.375C90.4492 0.925781 90.3418 0.652344 90.2051 0.554688L95.8008 0.583984C95.6445 0.681641 95.5078 1.02344 95.3906 1.60938C95.2734 2.19531 95.166 2.91797 95.0684 3.77734C94.9902 4.61719 94.9219 5.54492 94.8633 6.56055C94.8047 7.55664 94.7559 8.51367 94.7168 9.43164C94.6973 10.3496 94.6777 11.1699 94.6582 11.8926C94.6387 12.6152 94.6289 13.1133 94.6289 13.3867C95.7812 12.4297 96.9434 11.4824 98.1152 10.5449C99.3066 9.60742 100.449 8.62109 101.543 7.58594H106.67C106.162 7.85938 105.684 8.20117 105.234 8.61133C104.805 9.02148 104.365 9.40234 103.916 9.75391C102.959 10.5742 102.012 11.375 101.074 12.1562C100.137 12.9375 99.1992 13.7383 98.2617 14.5586ZM136.055 10.252C136.152 9.82227 136.24 9.40234 136.318 8.99219C136.396 8.5625 136.436 8.12305 136.436 7.67383C136.436 6.79492 136.279 6.07227 135.967 5.50586C135.654 4.91992 135.225 4.46094 134.678 4.12891C134.15 3.77734 133.535 3.54297 132.832 3.42578C132.148 3.28906 131.426 3.2207 130.664 3.2207C130.195 3.2207 129.658 3.25977 129.053 3.33789C128.447 3.39648 127.822 3.50391 127.178 3.66016C126.553 3.79687 125.928 3.98242 125.303 4.2168C124.678 4.45117 124.121 4.74414 123.633 5.0957C123.164 5.44727 122.773 5.86719 122.461 6.35547C122.168 6.82422 122.021 7.36133 122.021 7.9668C122.021 8.49414 122.207 8.95312 122.578 9.34375C122.969 9.71484 123.457 10.0371 124.043 10.3105C124.648 10.584 125.322 10.8086 126.064 10.9844C126.807 11.1602 127.539 11.3164 128.262 11.4531C128.984 11.5703 129.658 11.668 130.283 11.7461C130.908 11.8047 131.406 11.8633 131.777 11.9219C132.246 12 132.812 12.0977 133.477 12.2148C134.16 12.3125 134.863 12.4492 135.586 12.625C136.309 12.8008 137.021 13.0156 137.725 13.2695C138.447 13.5234 139.092 13.8359 139.658 14.207C140.225 14.5586 140.684 14.9785 141.035 15.4668C141.387 15.9355 141.562 16.4824 141.562 17.1074C141.562 17.7715 141.377 18.3574 141.006 18.8652C140.654 19.373 140.176 19.8223 139.57 20.2129C138.984 20.584 138.32 20.8965 137.578 21.1504C136.855 21.3848 136.113 21.5801 135.352 21.7363C134.609 21.8926 133.896 22 133.213 22.0586C132.529 22.1172 131.953 22.1465 131.484 22.1465C129.414 22.1465 127.363 21.9805 125.332 21.6484C123.301 21.2969 121.318 20.7402 119.385 19.9785C119.189 19.9004 118.965 19.8125 118.711 19.7148C118.457 19.5977 118.193 19.4805 117.92 19.3633C117.646 19.2461 117.383 19.1484 117.129 19.0703C116.875 18.9922 116.65 18.9434 116.455 18.9238C116.572 18.8066 116.748 18.6406 116.982 18.4258C117.236 18.2109 117.48 17.9766 117.715 17.7227C117.969 17.4688 118.193 17.2344 118.389 17.0195C118.604 16.7852 118.73 16.6094 118.77 16.4922C120.488 17.5469 122.363 18.3281 124.395 18.8359C126.445 19.3438 128.477 19.5977 130.488 19.5977C130.82 19.5977 131.338 19.5781 132.041 19.5391C132.764 19.4805 133.477 19.373 134.18 19.2168C134.902 19.0605 135.527 18.8457 136.055 18.5723C136.602 18.2793 136.875 17.8984 136.875 17.4297C136.875 16.8047 136.592 16.3066 136.025 15.9355C135.479 15.5645 134.746 15.2617 133.828 15.0273C132.91 14.7734 131.865 14.5781 130.693 14.4414C129.521 14.2852 128.32 14.1191 127.09 13.9434C125.879 13.7676 124.688 13.5625 123.516 13.3281C122.344 13.0742 121.299 12.7422 120.381 12.332C119.463 11.9023 118.721 11.3652 118.154 10.7207C117.607 10.0762 117.334 9.26562 117.334 8.28906C117.334 7.25391 117.539 6.33594 117.949 5.53516C118.379 4.73437 118.945 4.03125 119.648 3.42578C120.371 2.82031 121.182 2.3125 122.08 1.90234C122.998 1.49219 123.945 1.16016 124.922 0.90625C125.918 0.652344 126.904 0.466797 127.881 0.349609C128.857 0.232422 129.756 0.173828 130.576 0.173828C131.943 0.173828 133.242 0.28125 134.473 0.496094C135.703 0.710938 136.768 1.10156 137.666 1.66797C138.584 2.23438 139.307 3.02539 139.834 4.04102C140.381 5.05664 140.654 6.36523 140.654 7.9668C140.654 8.35742 140.635 8.73828 140.596 9.10938C140.576 9.48047 140.547 9.86133 140.508 10.252H136.055ZM150.85 11.4238C150.811 12.4199 150.771 13.4258 150.732 14.4414C150.693 15.4375 150.674 16.4336 150.674 17.4297C150.674 17.7617 150.742 18.0449 150.879 18.2793C151.016 18.5137 151.191 18.709 151.406 18.8652C151.641 19.002 151.895 19.0996 152.168 19.1582C152.461 19.2168 152.754 19.2461 153.047 19.2461C153.418 19.2461 153.779 19.2168 154.131 19.1582C154.502 19.0996 154.863 19.0215 155.215 18.9238L154.746 22.0586C153.613 22.0586 152.549 22.0293 151.553 21.9707C150.557 21.8926 149.688 21.6777 148.945 21.3262C148.203 20.9746 147.617 20.418 147.188 19.6562C146.758 18.875 146.543 17.7812 146.543 16.375C146.543 15.5547 146.562 14.7344 146.602 13.9141C146.66 13.0742 146.729 12.2441 146.807 11.4238L142.471 11.4531L142.676 8.58203C143.379 8.64062 144.092 8.67969 144.814 8.69922C145.537 8.69922 146.26 8.69922 146.982 8.69922C147.021 8.13281 147.051 7.58594 147.07 7.05859C147.09 6.51172 147.1 5.95508 147.1 5.38867C147.1 5.27148 147.1 5.03711 147.1 4.68555C147.1 4.33398 147.08 3.97266 147.041 3.60156C147.002 3.21094 146.943 2.85937 146.865 2.54688C146.787 2.23438 146.68 2.04883 146.543 1.99023L151.934 2.07812C151.855 2.07812 151.797 2.13672 151.758 2.25391C151.719 2.37109 151.68 2.45898 151.641 2.51758C151.523 2.88867 151.426 3.33789 151.348 3.86523C151.289 4.39258 151.23 4.94922 151.172 5.53516C151.133 6.10156 151.094 6.6582 151.055 7.20508C151.035 7.73242 151.016 8.20117 150.996 8.61133C151.66 8.57227 152.334 8.54297 153.018 8.52344C153.701 8.48438 154.375 8.38672 155.039 8.23047V11.3945L150.85 11.4238ZM168.516 22.3516C168.848 22.2539 169.053 22.0391 169.131 21.707C169.209 21.3555 169.258 21.043 169.277 20.7695C168.398 21.043 167.51 21.248 166.611 21.3848C165.713 21.5215 164.814 21.5898 163.916 21.5898C163.33 21.5898 162.627 21.541 161.807 21.4434C161.006 21.3457 160.234 21.1602 159.492 20.8867C158.77 20.6133 158.145 20.2324 157.617 19.7441C157.109 19.2559 156.855 18.6113 156.855 17.8105C156.855 17.127 157.1 16.541 157.588 16.0527C158.096 15.5645 158.74 15.1641 159.521 14.8516C160.303 14.5195 161.182 14.2656 162.158 14.0898C163.135 13.9141 164.092 13.7773 165.029 13.6797C165.967 13.582 166.846 13.5234 167.666 13.5039C168.486 13.4844 169.131 13.4648 169.6 13.4453C169.6 13.1719 169.6 12.9082 169.6 12.6543C169.619 12.4004 169.629 12.1367 169.629 11.8633C169.629 11.375 169.541 10.9551 169.365 10.6035C169.189 10.2324 168.945 9.92969 168.633 9.69531C168.34 9.46094 167.988 9.29492 167.578 9.19727C167.168 9.08008 166.738 9.02148 166.289 9.02148C165.859 9.02148 165.391 9.08008 164.883 9.19727C164.395 9.31445 163.926 9.49023 163.477 9.72461C163.027 9.95898 162.637 10.2617 162.305 10.6328C161.973 10.9844 161.768 11.3945 161.689 11.8633L157.998 11.3652C158.35 10.4668 158.838 9.70508 159.463 9.08008C160.088 8.45508 160.791 7.94727 161.572 7.55664C162.373 7.16602 163.223 6.88281 164.121 6.70703C165.02 6.51172 165.918 6.41406 166.816 6.41406C167.676 6.41406 168.506 6.52148 169.307 6.73633C170.127 6.95117 170.85 7.2832 171.475 7.73242C172.119 8.16211 172.627 8.71875 172.998 9.40234C173.389 10.0859 173.584 10.8965 173.584 11.834C173.584 12.8301 173.564 13.8262 173.525 14.8223C173.506 15.7988 173.496 16.7852 173.496 17.7812C173.496 17.957 173.496 18.2793 173.496 18.748C173.496 19.1973 173.506 19.6758 173.525 20.1836C173.564 20.6719 173.613 21.1309 173.672 21.5605C173.73 21.9707 173.818 22.2344 173.936 22.3516H168.516ZM160.84 17.8105C160.84 18.1035 160.996 18.3281 161.309 18.4844C161.621 18.6406 161.982 18.7676 162.393 18.8652C162.822 18.9434 163.242 18.9922 163.652 19.0117C164.062 19.0312 164.355 19.041 164.531 19.041C165.352 19.041 166.182 18.9824 167.021 18.8652C167.861 18.748 168.672 18.5625 169.453 18.3086C169.473 17.957 169.482 17.6055 169.482 17.2539C169.502 16.9023 169.512 16.5605 169.512 16.2285L168.75 16.1992C168.574 16.1992 168.252 16.209 167.783 16.2285C167.334 16.2285 166.816 16.248 166.23 16.2871C165.645 16.3066 165.029 16.3555 164.385 16.4336C163.76 16.4922 163.184 16.5801 162.656 16.6973C162.129 16.8145 161.689 16.9707 161.338 17.166C161.006 17.3418 160.84 17.5566 160.84 17.8105ZM183.369 11.4238C183.33 12.4199 183.291 13.4258 183.252 14.4414C183.213 15.4375 183.193 16.4336 183.193 17.4297C183.193 17.7617 183.262 18.0449 183.398 18.2793C183.535 18.5137 183.711 18.709 183.926 18.8652C184.16 19.002 184.414 19.0996 184.688 19.1582C184.98 19.2168 185.273 19.2461 185.566 19.2461C185.938 19.2461 186.299 19.2168 186.65 19.1582C187.021 19.0996 187.383 19.0215 187.734 18.9238L187.266 22.0586C186.133 22.0586 185.068 22.0293 184.072 21.9707C183.076 21.8926 182.207 21.6777 181.465 21.3262C180.723 20.9746 180.137 20.418 179.707 19.6562C179.277 18.875 179.062 17.7812 179.062 16.375C179.062 15.5547 179.082 14.7344 179.121 13.9141C179.18 13.0742 179.248 12.2441 179.326 11.4238L174.99 11.4531L175.195 8.58203C175.898 8.64062 176.611 8.67969 177.334 8.69922C178.057 8.69922 178.779 8.69922 179.502 8.69922C179.541 8.13281 179.57 7.58594 179.59 7.05859C179.609 6.51172 179.619 5.95508 179.619 5.38867C179.619 5.27148 179.619 5.03711 179.619 4.68555C179.619 4.33398 179.6 3.97266 179.561 3.60156C179.521 3.21094 179.463 2.85937 179.385 2.54688C179.307 2.23438 179.199 2.04883 179.062 1.99023L184.453 2.07812C184.375 2.07812 184.316 2.13672 184.277 2.25391C184.238 2.37109 184.199 2.45898 184.16 2.51758C184.043 2.88867 183.945 3.33789 183.867 3.86523C183.809 4.39258 183.75 4.94922 183.691 5.53516C183.652 6.10156 183.613 6.6582 183.574 7.20508C183.555 7.73242 183.535 8.20117 183.516 8.61133C184.18 8.57227 184.854 8.54297 185.537 8.52344C186.221 8.48438 186.895 8.38672 187.559 8.23047V11.3945L183.369 11.4238ZM190.752 8.28906L195.908 8.31836C195.811 8.33789 195.732 8.42578 195.674 8.58203C195.635 8.71875 195.596 8.82617 195.557 8.9043C195.42 9.39258 195.312 9.98828 195.234 10.6914C195.176 11.375 195.127 12.0977 195.088 12.8594C195.068 13.6016 195.049 14.3242 195.029 15.0273C195.029 15.7305 195.029 16.3457 195.029 16.873C195.029 17.0488 195.029 17.4102 195.029 17.957C195.029 18.4844 195.039 19.0508 195.059 19.6562C195.098 20.2617 195.146 20.8184 195.205 21.3262C195.264 21.8145 195.352 22.1172 195.469 22.2344H190.283C190.381 22.0977 190.479 21.7754 190.576 21.2676C190.674 20.7598 190.752 20.1543 190.811 19.4512C190.889 18.748 190.957 17.9961 191.016 17.1953C191.074 16.375 191.123 15.6035 191.162 14.8809C191.221 14.1387 191.26 13.4844 191.279 12.918C191.299 12.332 191.309 11.9316 191.309 11.7168C191.309 11.5996 191.309 11.3652 191.309 11.0137C191.309 10.6621 191.289 10.3008 191.25 9.92969C191.211 9.53906 191.152 9.1875 191.074 8.875C190.996 8.54297 190.889 8.34766 190.752 8.28906ZM193.301 1.19922C193.555 1.19922 193.838 1.23828 194.15 1.31641C194.463 1.39453 194.746 1.51172 195 1.66797C195.273 1.80469 195.498 2 195.674 2.25391C195.85 2.48828 195.938 2.76172 195.938 3.07422C195.938 3.38672 195.85 3.66016 195.674 3.89453C195.498 4.12891 195.273 4.32422 195 4.48047C194.746 4.61719 194.463 4.72461 194.15 4.80273C193.838 4.88086 193.555 4.91992 193.301 4.91992C193.027 4.91992 192.734 4.88086 192.422 4.80273C192.129 4.72461 191.846 4.61719 191.572 4.48047C191.318 4.32422 191.104 4.12891 190.928 3.89453C190.752 3.66016 190.664 3.38672 190.664 3.07422C190.664 2.76172 190.752 2.48828 190.928 2.25391C191.104 2 191.318 1.80469 191.572 1.66797C191.846 1.51172 192.129 1.39453 192.422 1.31641C192.734 1.23828 193.027 1.19922 193.301 1.19922ZM208.096 7.87891C209.17 7.87891 210.303 8.03516 211.494 8.34766C212.686 8.64062 213.77 9.09961 214.746 9.72461C215.723 10.3301 216.533 11.1016 217.178 12.0391C217.822 12.9766 218.145 14.0801 218.145 15.3496C218.145 16.1895 217.988 16.9512 217.676 17.6348C217.363 18.2988 216.943 18.8945 216.416 19.4219C215.908 19.9297 215.312 20.3789 214.629 20.7695C213.945 21.1406 213.223 21.4531 212.461 21.707C211.719 21.9414 210.957 22.1172 210.176 22.2344C209.395 22.3516 208.662 22.4102 207.979 22.4102C206.865 22.4102 205.723 22.2832 204.551 22.0293C203.379 21.7754 202.305 21.3652 201.328 20.7988C200.371 20.2324 199.58 19.5 198.955 18.6016C198.35 17.6836 198.047 16.5605 198.047 15.2324C198.047 13.9238 198.359 12.8105 198.984 11.8926C199.629 10.9551 200.439 10.1934 201.416 9.60742C202.393 9.00195 203.467 8.5625 204.639 8.28906C205.83 8.01562 206.982 7.87891 208.096 7.87891ZM202.441 15.2031C202.441 15.9648 202.607 16.6094 202.939 17.1367C203.291 17.6641 203.73 18.0938 204.258 18.4258C204.805 18.7578 205.41 19.002 206.074 19.1582C206.738 19.2949 207.393 19.3633 208.037 19.3633C208.643 19.3633 209.277 19.2852 209.941 19.1289C210.605 18.9727 211.221 18.7285 211.787 18.3965C212.354 18.0645 212.822 17.6445 213.193 17.1367C213.564 16.6094 213.75 15.9844 213.75 15.2617C213.75 14.5391 213.574 13.9141 213.223 13.3867C212.871 12.8398 212.422 12.3906 211.875 12.0391C211.328 11.668 210.713 11.3945 210.029 11.2188C209.365 11.043 208.721 10.9551 208.096 10.9551C207.451 10.9551 206.797 11.043 206.133 11.2188C205.469 11.375 204.863 11.6289 204.316 11.9805C203.77 12.3125 203.32 12.752 202.969 13.2988C202.617 13.8262 202.441 14.4609 202.441 15.2031ZM237.656 12.9766C237.656 14.3242 237.588 15.6621 237.451 16.9902C237.334 18.3184 237.275 19.6562 237.275 21.0039C237.275 21.4531 237.305 21.8926 237.363 22.3223H232.236C232.432 22.0098 232.578 21.4922 232.676 20.7695C232.773 20.0273 232.842 19.2461 232.881 18.4258C232.939 17.5859 232.969 16.7852 232.969 16.0234C232.988 15.2422 232.998 14.6465 232.998 14.2363C232.998 13.0449 232.705 12.1172 232.119 11.4531C231.533 10.7695 230.625 10.4277 229.395 10.4277C228.984 10.4277 228.584 10.5059 228.193 10.6621C227.822 10.7988 227.461 10.9844 227.109 11.2188C226.777 11.4531 226.455 11.7168 226.143 12.0098C225.85 12.3027 225.586 12.5957 225.352 12.8887C225.293 14.5879 225.264 16.2871 225.264 17.9863C225.264 18.123 225.264 18.3965 225.264 18.8066C225.264 19.1973 225.273 19.6172 225.293 20.0664C225.312 20.5156 225.342 20.9355 225.381 21.3262C225.42 21.6973 225.488 21.9219 225.586 22H220.4C220.479 21.8828 220.557 21.5996 220.635 21.1504C220.713 20.6816 220.781 20.1348 220.84 19.5098C220.898 18.8652 220.947 18.1816 220.986 17.459C221.025 16.7363 221.055 16.043 221.074 15.3789C221.113 14.7148 221.133 14.1289 221.133 13.6211C221.152 13.1133 221.162 12.7617 221.162 12.5664C221.162 12.4102 221.152 12.0879 221.133 11.5996C221.133 11.0918 221.113 10.5742 221.074 10.0469C221.035 9.5 220.967 9.00195 220.869 8.55273C220.791 8.10352 220.664 7.84961 220.488 7.79102L225.615 7.82031L225.527 9.22656C226.25 8.69922 227.051 8.26953 227.93 7.9375C228.828 7.58594 229.736 7.41016 230.654 7.41016C231.553 7.41016 232.422 7.50781 233.262 7.70312C234.121 7.87891 234.873 8.19141 235.518 8.64062C236.162 9.07031 236.68 9.63672 237.07 10.3398C237.461 11.043 237.656 11.9219 237.656 12.9766Z" fill="#248F55"/>
</g>
<defs>
<filter id="filter0_d_2_22" x="0.908203" y="0.173828" width="238.748" height="24.2363" filterUnits="userSpaceOnUse" color-interpolation-filters="sRGB">
<feFlood flood-opacity="0" result="BackgroundImageFix"/>
<feColorMatrix in="SourceAlpha" type="matrix" values="0 0 0 0 0 0 0 0 0 0 0 0 0 0 0 0 0 0 127 0" result="hardAlpha"/>
<feOffset dx="2" dy="2"/>
<feComposite in2="hardAlpha" operator="out"/>
<feColorMatrix type="matrix" values="0 0 0 0 0.94902 0 0 0 0 0.972549 0 0 0 0 0.952941 0 0 0 1 0"/>
<feBlend mode="normal" in2="BackgroundImageFix" result="effect1_dropShadow_2_22"/>
<feBlend mode="normal" in="SourceGraphic" in2="effect1_dropShadow_2_22" result="shape"/>
</filter>
</defs>
</svg>
